<svg version="1.1" id="Layer_1" xmlns="http://www.w3.org/2000/svg" xmlns:xlink="http://www.w3.org/1999/xlink" x="0px" y="0px"
	 width="100%" viewBox="0 0 500 500" enable-background="new 0 0 500 500" xml:space="preserve">
<path fill="#000000" opacity="1.000000" stroke="none" 
	d="
M282.000000,501.000000 
	C188.000015,501.000000 94.500046,501.000000 1.000050,501.000000 
	C1.000033,334.333405 1.000033,167.666794 1.000017,1.000140 
	C167.666565,1.000093 334.333130,1.000093 500.999756,1.000046 
	C500.999847,167.666519 500.999847,334.333038 500.999939,500.999786 
	C428.166656,501.000000 355.333344,501.000000 282.000000,501.000000 
M361.260620,116.015602 
	C349.786896,126.912071 338.244446,137.737701 326.887939,148.755005 
	C324.060242,151.498215 324.063446,155.243439 326.716522,158.017014 
	C329.566589,160.996521 333.263214,160.891434 336.344452,158.044525 
	C340.242035,154.443359 343.821716,150.500031 347.679962,146.853989 
	C355.434296,139.526138 363.284485,132.299744 371.867584,124.993706 
	C377.833405,122.298973 384.056915,121.738182 390.580200,121.933250 
	C408.271545,122.462273 425.530243,142.515259 421.003693,161.255463 
	C420.060730,165.159348 418.981110,169.030212 417.320862,173.189209 
	C415.268402,175.904007 413.499481,178.901123 411.120422,181.290756 
	C381.200775,211.342819 351.194641,241.308746 321.200928,271.287018 
	C320.182007,272.305450 319.061523,273.222229 316.916595,275.149292 
	C308.174988,265.938232 299.611237,256.914581 291.245911,247.241531 
	C300.392731,234.898560 303.944275,221.575638 300.232269,206.169846 
	C297.744904,195.846802 292.024811,187.845840 285.009338,180.628433 
	C267.189911,162.296112 249.051163,144.274170 231.718964,125.804665 
	C239.546844,121.493454 247.756668,120.974060 256.426636,122.722824 
	C264.180634,124.286842 270.097137,128.744965 275.422363,134.016983 
	C297.196808,155.573792 318.796021,177.307510 340.503052,198.932648 
	C341.726654,200.151672 343.214752,201.522705 344.792999,201.879395 
	C347.863373,202.573273 350.363312,201.533279 352.010071,198.392960 
	C353.900787,194.787491 352.103485,192.590088 349.802094,190.290909 
	C328.007568,168.517334 306.393768,146.558533 284.323364,125.068565 
	C279.042023,119.926125 272.783112,115.038628 266.052826,112.284134 
	C250.510452,105.923134 235.148819,107.484627 220.380646,116.887238 
	C211.915695,108.417984 203.040833,100.311882 195.114731,91.365234 
	C188.705719,84.131042 180.728897,84.516953 174.075058,91.253120 
	C143.216370,122.493553 112.049965,153.429947 81.038635,184.519989 
	C79.450958,186.111710 78.279350,188.118469 76.264725,190.218811 
	C63.076080,209.320679 65.331802,236.919632 83.305054,252.903076 
	C98.316475,266.252625 124.131424,270.077209 143.710083,255.810104 
	C154.398804,245.461838 165.196960,235.222641 175.697144,224.686478 
	C178.235779,222.139160 177.905975,218.631531 175.332596,215.857864 
	C172.805237,213.133804 169.751114,212.889526 167.110519,215.434570 
	C156.290939,225.862640 145.612167,236.436798 134.140839,247.009827 
	C133.406998,247.344879 132.675339,247.684784 131.939026,248.014282 
	C120.774178,253.010620 109.818466,254.188919 98.334030,248.237427 
	C90.163857,244.003464 85.813683,237.059509 82.903763,229.221100 
	C79.075386,218.908676 80.089569,208.571625 86.144737,198.328934 
	C118.817268,165.172577 151.489792,132.016205 184.347351,98.672081 
	C193.086441,107.462448 201.528091,115.948204 209.956863,124.446732 
	C210.415253,124.908920 210.765808,125.478081 210.868134,126.639511 
	C196.676300,144.200150 196.894714,170.743027 212.473480,187.581985 
	C231.511169,208.159668 252.064011,227.335617 271.685944,247.779617 
	C256.404663,255.780853 238.977386,252.474854 227.184921,239.890289 
	C213.878174,225.689728 199.755020,212.254181 185.986176,198.486664 
	C177.866455,190.367737 169.867340,182.121124 161.526093,174.236526 
	C159.766602,172.573349 156.541168,171.114273 154.356033,171.521042 
	C149.396973,172.444199 148.396606,178.901260 152.282257,182.790695 
	C175.452438,205.983353 198.586884,229.212143 221.850388,252.310913 
	C236.747055,267.102081 263.668762,269.378571 281.735626,257.194214 
	C290.309326,265.778076 299.004761,274.244843 307.414581,282.986389 
	C313.149750,288.947815 321.038879,289.654236 327.467529,283.163116 
	C358.938873,251.385788 390.672516,219.868317 422.226257,188.172195 
	C424.223389,186.166046 425.481750,183.424469 427.753876,180.766266 
	C433.856689,170.315109 436.224915,159.001999 433.895233,147.190125 
	C427.142273,112.951492 389.211243,98.737053 361.260620,116.015602 
M231.032547,397.443054 
	C234.550781,388.428497 238.069000,379.413940 241.690781,370.134033 
	C244.505569,377.450165 247.327942,384.579254 249.990356,391.767639 
	C252.366440,398.182892 255.393738,400.990387 260.337341,400.999969 
	C266.691742,401.012299 269.424561,398.750519 272.010376,391.471039 
	C273.295868,387.852234 274.676300,384.266846 276.034149,380.674042 
	C283.160980,361.816376 290.367584,342.988312 297.381012,324.088531 
	C299.493927,318.394653 297.272919,312.838379 292.771362,311.243530 
	C287.027710,309.208618 281.080353,311.948853 279.061768,317.759949 
	C275.962280,326.682678 273.011047,335.656860 269.994812,344.608521 
	C267.042389,353.370789 264.087280,362.132172 260.802704,371.874725 
	C257.930786,364.472595 255.575226,358.092712 252.978149,351.812775 
	C251.150650,347.393707 251.408264,343.537933 253.831375,339.223419 
	C256.308563,334.812714 257.879944,329.843781 259.470856,324.995514 
	C262.404297,316.055786 258.009613,310.279999 249.177246,310.972992 
	C244.393387,311.348328 242.577515,314.895996 241.258667,318.513580 
	C237.968689,327.537994 235.116547,336.720917 231.967667,345.798279 
	C229.048828,354.212585 225.973175,362.572479 222.792068,371.442932 
	C219.520645,362.143982 216.479218,353.568726 213.487396,344.976166 
	C210.117462,335.297668 207.028381,325.512695 203.348465,315.954468 
	C201.494446,311.138916 195.892822,309.512451 190.976395,311.526215 
	C186.050446,313.543854 184.098572,317.677277 186.002609,322.918762 
	C194.692352,346.840027 203.422272,370.747131 212.273224,394.609100 
	C214.977097,401.898712 224.787552,403.608978 231.032547,397.443054 
M306.995667,346.534576 
	C303.411438,360.649933 308.255890,378.527008 320.532135,389.179504 
	C331.743591,398.908051 344.311096,403.606232 359.401459,401.103516 
	C368.614960,399.575500 376.814331,396.122131 383.493683,389.851776 
	C395.931641,378.175354 401.463379,363.879547 397.994598,346.724518 
	C395.282806,333.313110 388.030945,322.907898 376.250366,316.123413 
	C367.371155,311.009735 357.825867,308.979858 347.181000,309.758392 
	C329.923462,311.020569 310.589630,326.176880 306.995667,346.534576 
M154.969177,385.640411 
	C158.249054,389.864288 161.218033,394.396637 164.957153,398.164795 
	C166.519455,399.739197 169.863129,400.590302 172.147934,400.222748 
	C182.095245,398.622650 181.916458,389.853271 177.092026,383.685089 
	C168.486557,372.682739 159.636948,361.871368 150.687469,350.728668 
	C158.445618,343.002258 166.119736,335.403198 173.741318,327.751831 
	C177.962234,323.514435 178.368484,316.880707 174.730881,313.252655 
	C171.099136,309.630493 164.467194,310.053680 160.229431,314.272705 
	C150.551422,323.907898 140.896179,333.566162 131.276031,343.259064 
	C129.726974,344.819855 128.406387,346.607391 126.980194,348.290100 
	C125.999985,338.447327 126.039444,329.479736 125.985870,320.512726 
	C125.951164,314.703766 121.986717,310.995850 115.986488,311.000000 
	C110.212143,311.003998 107.004868,314.363739 107.002953,320.462799 
	C106.995636,343.780609 106.996178,367.098450 107.002419,390.416260 
	C107.004204,397.092682 109.649246,399.935669 115.871384,400.000000 
	C122.419220,400.067688 125.902527,396.860382 125.987061,390.564301 
	C126.051910,385.735077 125.957451,380.903564 126.032814,376.074646 
	C126.049660,374.995331 126.117020,373.534943 126.781624,372.912079 
	C130.101837,369.800201 133.628784,366.908875 137.016708,363.996979 
	C142.922348,371.083923 148.737289,378.062073 154.969177,385.640411 
z"/>
<path fill="#FFFFFF" opacity="1.000000" stroke="none" 
	d="
M230.760345,397.726074 
	C224.787552,403.608978 214.977097,401.898712 212.273224,394.609100 
	C203.422272,370.747131 194.692352,346.840027 186.002609,322.918762 
	C184.098572,317.677277 186.050446,313.543854 190.976395,311.526215 
	C195.892822,309.512451 201.494446,311.138916 203.348465,315.954468 
	C207.028381,325.512695 210.117462,335.297668 213.487396,344.976166 
	C216.479218,353.568726 219.520645,362.143982 222.792068,371.442932 
	C225.973175,362.572479 229.048828,354.212585 231.967667,345.798279 
	C235.116547,336.720917 237.968689,327.537994 241.258667,318.513580 
	C242.577515,314.895996 244.393387,311.348328 249.177246,310.972992 
	C258.009613,310.279999 262.404297,316.055786 259.470856,324.995514 
	C257.879944,329.843781 256.308563,334.812714 253.831375,339.223419 
	C251.408264,343.537933 251.150650,347.393707 252.978149,351.812775 
	C255.575226,358.092712 257.930786,364.472595 260.802704,371.874725 
	C264.087280,362.132172 267.042389,353.370789 269.994812,344.608521 
	C273.011047,335.656860 275.962280,326.682678 279.061768,317.759949 
	C281.080353,311.948853 287.027710,309.208618 292.771362,311.243530 
	C297.272919,312.838379 299.493927,318.394653 297.381012,324.088531 
	C290.367584,342.988312 283.160980,361.816376 276.034149,380.674042 
	C274.676300,384.266846 273.295868,387.852234 272.010376,391.471039 
	C269.424561,398.750519 266.691742,401.012299 260.337341,400.999969 
	C255.393738,400.990387 252.366440,398.182892 249.990356,391.767639 
	C247.327942,384.579254 244.505569,377.450165 241.690781,370.134033 
	C238.069000,379.413940 234.550781,388.428497 230.760345,397.726074 
z"/>
<path fill="#00D3F8" opacity="1.000000" stroke="none" 
	d="
M271.961639,247.117722 
	C252.064011,227.335617 231.511169,208.159668 212.473480,187.581985 
	C196.894714,170.743027 196.676300,144.200150 211.352264,126.353683 
	C214.636642,129.027420 217.436920,131.986984 220.128967,135.312393 
	C219.724274,136.243744 219.464111,136.831970 219.126007,137.371353 
	C210.919083,150.464523 210.935364,166.391953 220.580566,176.671478 
	C240.394684,197.788635 261.455353,217.736160 282.033936,238.502502 
	C285.059113,241.856903 288.053314,244.873917 291.047485,247.890930 
	C299.611237,256.914581 308.174988,265.938232 316.916595,275.149292 
	C319.061523,273.222229 320.182007,272.305450 321.200928,271.287018 
	C351.194641,241.308746 381.200775,211.342819 411.120422,181.290756 
	C413.499481,178.901123 415.268402,175.904007 417.781403,173.362183 
	C421.189240,176.031769 424.136505,178.528397 427.083801,181.025024 
	C425.481750,183.424469 424.223389,186.166046 422.226257,188.172195 
	C390.672516,219.868317 358.938873,251.385788 327.467529,283.163116 
	C321.038879,289.654236 313.149750,288.947815 307.414581,282.986389 
	C299.004761,274.244843 290.309326,265.778076 281.381653,256.680328 
	C278.005646,253.150208 274.983643,250.133957 271.961639,247.117722 
z"/>
<path fill="#5CE1E6" opacity="1.000000" stroke="none" 
	d="
M220.237198,134.946533 
	C217.436920,131.986984 214.636642,129.027420 211.501465,126.032654 
	C210.765808,125.478081 210.415253,124.908920 209.956863,124.446732 
	C201.528091,115.948204 193.086441,107.462448 184.347351,98.672081 
	C151.489792,132.016205 118.817268,165.172577 85.737122,198.435242 
	C82.524338,195.671707 79.719185,192.801849 76.914024,189.931992 
	C78.279350,188.118469 79.450958,186.111710 81.038635,184.519989 
	C112.049965,153.429947 143.216370,122.493553 174.075058,91.253120 
	C180.728897,84.516953 188.705719,84.131042 195.114731,91.365234 
	C203.040833,100.311882 211.915695,108.417984 220.841660,117.316231 
	C224.548538,120.539467 227.794403,123.333710 231.040268,126.127953 
	C249.051163,144.274170 267.189911,162.296112 285.009338,180.628433 
	C292.024811,187.845840 297.744904,195.846802 300.232269,206.169846 
	C303.944275,221.575638 300.392731,234.898560 291.146698,247.566223 
	C288.053314,244.873917 285.059113,241.856903 282.360382,238.333572 
	C283.666229,235.797714 284.690948,233.775162 285.684631,231.737473 
	C292.010742,218.765457 289.365723,204.535385 280.250214,195.024948 
	C260.667938,174.594284 240.289627,154.926575 220.237198,134.946533 
z"/>
<path fill="#FFFFFF" opacity="1.000000" stroke="none" 
	d="
M306.997742,346.093994 
	C310.589630,326.176880 329.923462,311.020569 347.181000,309.758392 
	C357.825867,308.979858 367.371155,311.009735 376.250366,316.123413 
	C388.030945,322.907898 395.282806,333.313110 397.994598,346.724518 
	C401.463379,363.879547 395.931641,378.175354 383.493683,389.851776 
	C376.814331,396.122131 368.614960,399.575500 359.401459,401.103516 
	C344.311096,403.606232 331.743591,398.908051 320.532135,389.179504 
	C308.255890,378.527008 303.411438,360.649933 306.997742,346.093994 
M325.018799,360.961609 
	C327.905762,371.843353 334.221588,379.376465 345.319153,382.780457 
	C356.705994,386.273132 369.378662,379.693695 373.670410,373.679810 
	C383.350067,360.115967 382.038544,343.373505 368.204102,332.647675 
	C358.422058,325.063690 343.498352,326.128052 334.512848,334.073914 
	C326.737732,340.949432 324.291351,349.981537 325.018799,360.961609 
z"/>
<path fill="#FFFFFF" opacity="1.000000" stroke="none" 
	d="
M154.760712,385.340302 
	C148.737289,378.062073 142.922348,371.083923 137.016708,363.996979 
	C133.628784,366.908875 130.101837,369.800201 126.781624,372.912079 
	C126.117020,373.534943 126.049660,374.995331 126.032814,376.074646 
	C125.957451,380.903564 126.051910,385.735077 125.987061,390.564301 
	C125.902527,396.860382 122.419220,400.067688 115.871384,400.000000 
	C109.649246,399.935669 107.004204,397.092682 107.002419,390.416260 
	C106.996178,367.098450 106.995636,343.780609 107.002953,320.462799 
	C107.004868,314.363739 110.212143,311.003998 115.986488,311.000000 
	C121.986717,310.995850 125.951164,314.703766 125.985870,320.512726 
	C126.039444,329.479736 125.999985,338.447327 126.980194,348.290100 
	C128.406387,346.607391 129.726974,344.819855 131.276031,343.259064 
	C140.896179,333.566162 150.551422,323.907898 160.229431,314.272705 
	C164.467194,310.053680 171.099136,309.630493 174.730881,313.252655 
	C178.368484,316.880707 177.962234,323.514435 173.741318,327.751831 
	C166.119736,335.403198 158.445618,343.002258 150.687469,350.728668 
	C159.636948,361.871368 168.486557,372.682739 177.092026,383.685089 
	C181.916458,389.853271 182.095245,398.622650 172.147934,400.222748 
	C169.863129,400.590302 166.519455,399.739197 164.957153,398.164795 
	C161.218033,394.396637 158.249054,389.864288 154.760712,385.340302 
z"/>
<path fill="#00D3F8" opacity="1.000000" stroke="none" 
	d="
M231.379608,125.966309 
	C227.794403,123.333710 224.548538,120.539467 221.153793,117.456131 
	C235.148819,107.484627 250.510452,105.923134 266.052826,112.284134 
	C272.783112,115.038628 279.042023,119.926125 284.323364,125.068565 
	C306.393768,146.558533 328.007568,168.517334 349.802094,190.290909 
	C352.103485,192.590088 353.900787,194.787491 352.010071,198.392960 
	C350.363312,201.533279 347.863373,202.573273 344.792999,201.879395 
	C343.214752,201.522705 341.726654,200.151672 340.503052,198.932648 
	C318.796021,177.307510 297.196808,155.573792 275.422363,134.016983 
	C270.097137,128.744965 264.180634,124.286842 256.426636,122.722824 
	C247.756668,120.974060 239.546844,121.493454 231.379608,125.966309 
z"/>
<path fill="#5CE1E6" opacity="1.000000" stroke="none" 
	d="
M271.823792,247.448669 
	C274.983643,250.133957 278.005646,253.150208 281.100677,256.502258 
	C263.668762,269.378571 236.747055,267.102081 221.850388,252.310913 
	C198.586884,229.212143 175.452438,205.983353 152.282257,182.790695 
	C148.396606,178.901260 149.396973,172.444199 154.356033,171.521042 
	C156.541168,171.114273 159.766602,172.573349 161.526093,174.236526 
	C169.867340,182.121124 177.866455,190.367737 185.986176,198.486664 
	C199.755020,212.254181 213.878174,225.689728 227.184921,239.890289 
	C238.977386,252.474854 256.404663,255.780853 271.823792,247.448669 
z"/>
<path fill="#01D3F8" opacity="1.000000" stroke="none" 
	d="
M76.589378,190.075409 
	C79.719185,192.801849 82.524338,195.671707 85.581207,198.739319 
	C80.089569,208.571625 79.075386,218.908676 82.903763,229.221100 
	C85.813683,237.059509 90.163857,244.003464 98.334030,248.237427 
	C109.818466,254.188919 120.774178,253.010620 131.939026,248.014282 
	C132.675339,247.684784 133.406998,247.344879 134.679169,247.276794 
	C137.839172,250.385712 140.460846,253.227661 143.082504,256.069611 
	C124.131424,270.077209 98.316475,266.252625 83.305054,252.903076 
	C65.331802,236.919632 63.076080,209.320679 76.589378,190.075409 
z"/>
<path fill="#0CC1E0" opacity="1.000000" stroke="none" 
	d="
M427.418823,180.895660 
	C424.136505,178.528397 421.189240,176.031769 418.103210,173.225708 
	C418.981110,169.030212 420.060730,165.159348 421.003693,161.255463 
	C425.530243,142.515259 408.271545,122.462273 390.580200,121.933250 
	C384.056915,121.738182 377.833405,122.298973 371.129395,124.978577 
	C367.583832,121.944519 364.776489,118.925598 361.969147,115.906677 
	C389.211243,98.737053 427.142273,112.951492 433.895233,147.190125 
	C436.224915,159.001999 433.856689,170.315109 427.418823,180.895660 
z"/>
<path fill="#00D3F8" opacity="1.000000" stroke="none" 
	d="
M361.614868,115.961136 
	C364.776489,118.925598 367.583832,121.944519 370.743164,124.997459 
	C363.284485,132.299744 355.434296,139.526138 347.679962,146.853989 
	C343.821716,150.500031 340.242035,154.443359 336.344452,158.044525 
	C333.263214,160.891434 329.566589,160.996521 326.716522,158.017014 
	C324.063446,155.243439 324.060242,151.498215 326.887939,148.755005 
	C338.244446,137.737701 349.786896,126.912071 361.614868,115.961136 
z"/>
<path fill="#5CE1E6" opacity="1.000000" stroke="none" 
	d="
M143.396301,255.939850 
	C140.460846,253.227661 137.839172,250.385712 135.049530,247.250488 
	C145.612167,236.436798 156.290939,225.862640 167.110519,215.434570 
	C169.751114,212.889526 172.805237,213.133804 175.332596,215.857864 
	C177.905975,218.631531 178.235779,222.139160 175.697144,224.686478 
	C165.196960,235.222641 154.398804,245.461838 143.396301,255.939850 
z"/>
<path fill="#000000" opacity="1.000000" stroke="none" 
	d="
M220.128967,135.312393 
	C240.289627,154.926575 260.667938,174.594284 280.250214,195.024948 
	C289.365723,204.535385 292.010742,218.765457 285.684631,231.737473 
	C284.690948,233.775162 283.666229,235.797714 282.329376,237.996185 
	C261.455353,217.736160 240.394684,197.788635 220.580566,176.671478 
	C210.935364,166.391953 210.919083,150.464523 219.126007,137.371353 
	C219.464111,136.831970 219.724274,136.243744 220.128967,135.312393 
z"/>
<path fill="#000000" opacity="1.000000" stroke="none" 
	d="
M325.010040,360.514526 
	C324.291351,349.981537 326.737732,340.949432 334.512848,334.073914 
	C343.498352,326.128052 358.422058,325.063690 368.204102,332.647675 
	C382.038544,343.373505 383.350067,360.115967 373.670410,373.679810 
	C369.378662,379.693695 356.705994,386.273132 345.319153,382.780457 
	C334.221588,379.376465 327.905762,371.843353 325.010040,360.514526 
z"/>
</svg>